<svg width="17" height="16" viewBox="0 0 17 16" fill="none" xmlns="http://www.w3.org/2000/svg">
<path fill-rule="evenodd" clip-rule="evenodd" d="M16.3467 8.18183C16.3467 7.61456 16.2958 7.06911 16.2012 6.54547H8.66667V9.64002H12.9721C12.7867 10.64 12.223 11.4873 11.3758 12.0546V14.0618H13.9612C15.4739 12.6691 16.3467 10.6182 16.3467 8.18183Z" fill="#191D23"/>
<path fill-rule="evenodd" clip-rule="evenodd" d="M8.66665 15.9999C10.8266 15.9999 12.6376 15.2835 13.9612 14.0617L11.3757 12.0544C10.6594 12.5344 9.74301 12.818 8.66665 12.818C6.58301 12.818 4.81937 11.4108 4.19028 9.51987H1.51756V11.5926C2.83392 14.2071 5.53937 15.9999 8.66665 15.9999Z" fill="#191D23"/>
<path fill-rule="evenodd" clip-rule="evenodd" d="M4.19031 9.52005C4.03031 9.04005 3.9394 8.52732 3.9394 8.00005C3.9394 7.47277 4.03031 6.96005 4.19031 6.48005V4.40732H1.51758C0.975763 5.48732 0.666672 6.70914 0.666672 8.00005C0.666672 9.29095 0.975763 10.5128 1.51758 11.5928L4.19031 9.52005Z" fill="#191D23"/>
<path fill-rule="evenodd" clip-rule="evenodd" d="M8.66665 3.18182C9.84119 3.18182 10.8957 3.58545 11.7248 4.37818L14.0194 2.08364C12.6339 0.792727 10.823 0 8.66665 0C5.53937 0 2.83392 1.79273 1.51756 4.40727L4.19028 6.48C4.81937 4.58909 6.58301 3.18182 8.66665 3.18182Z" fill="#191D23"/>
</svg>
