<svg width="16" height="16" viewBox="0 0 16 16" fill="none" xmlns="http://www.w3.org/2000/svg">
<path fill-rule="evenodd" clip-rule="evenodd" d="M2.14415 8C2.52925 8.5311 3.3185 9.53184 4.35779 10.4031C5.43539 11.3066 6.69721 12 8 12C9.30279 12 10.5646 11.3066 11.6422 10.4031C12.6815 9.53184 13.4708 8.5311 13.8558 8C13.4708 7.4689 12.6815 6.46816 11.6422 5.59686C10.5646 4.69343 9.30279 4 8 4C6.69721 4 5.43539 4.69343 4.35779 5.59686C3.3185 6.46816 2.52925 7.4689 2.14415 8ZM3.50118 4.5751C4.67566 3.59045 6.23752 2.66667 8 2.66667C9.76248 2.66667 11.3243 3.59045 12.4988 4.5751C13.6847 5.56929 14.5621 6.69809 14.9676 7.262C15.2865 7.70558 15.2865 8.29442 14.9676 8.738C14.5621 9.30191 13.6847 10.4307 12.4988 11.4249C11.3243 12.4095 9.76248 13.3333 8 13.3333C6.23752 13.3333 4.67566 12.4095 3.50118 11.4249C2.31531 10.4307 1.43787 9.30191 1.03245 8.738C0.713539 8.29442 0.713538 7.70558 1.03245 7.262C1.43787 6.69809 2.31531 5.56929 3.50118 4.5751Z" fill="#64748B"/>
<path fill-rule="evenodd" clip-rule="evenodd" d="M8 9.33333C8.73638 9.33333 9.33333 8.73638 9.33333 8C9.33333 7.26362 8.73638 6.66667 8 6.66667C7.26362 6.66667 6.66667 7.26362 6.66667 8C6.66667 8.73638 7.26362 9.33333 8 9.33333ZM8 10.6667C9.47276 10.6667 10.6667 9.47276 10.6667 8C10.6667 6.52724 9.47276 5.33333 8 5.33333C6.52724 5.33333 5.33333 6.52724 5.33333 8C5.33333 9.47276 6.52724 10.6667 8 10.6667Z" fill="#64748B"/>
</svg>
